<svg id="Layer_1" data-name="Layer 1" xmlns="http://www.w3.org/2000/svg" viewBox="0 0 300 111.63"><defs><style>.cls-2{fill:#e9edf2}.cls-10,.cls-3,.cls-5{fill:#fff}.cls-4{fill:#2f93e0}.cls-5{stroke:#0f2535}.cls-10,.cls-5{stroke-miterlimit:10}.cls-5{stroke-width:.62px}.cls-10{stroke-width:.63px}.cls-8,.cls-9{fill:#0f2535}.cls-9{fill-rule:evenodd}.cls-10{stroke:#fff}.cls-12{fill:#1a1a1a}</style><clipPath id="clip-path"><path d="M96.28 75.72L133 86.9l8.37-12.9.72-2.55s-11.72 4.82-23.31 5.28c-11.24.45-21.47-2-23.47-3.84" fill="none"/></clipPath></defs><path class="cls-2" d="M99.75 84.13h96.28c1.1 0 24.11-.7 28.44-.7 10.11 0 5.67-6 1.45-6-7.23 0-13-1.25-14.45-1.25a25.7 25.7 0 0 1-4.29-.6c-.18 0-.37 0-.56-.08a35.15 35.15 0 0 1-10-3c-2.6-1.23-5.19-2.47-7.8-3.69a20.18 20.18 0 0 0-16.74-.46c-2.16.86-4.3 1.74-6.45 2.61a15.87 15.87 0 0 1-5.55 1.19 16.09 16.09 0 0 1-10.85-3.66q-7.12-5.78-14.23-11.57a11.26 11.26 0 0 0-7.16-2.63 19.12 19.12 0 0 1-14.67-6.87c-2.74-3.16-5.44-6.34-8.16-9.52a36 36 0 0 1-6.69-11.8 43.62 43.62 0 0 1-1.86-9.55 7.37 7.37 0 0 0-6.4-6.55 21.08 21.08 0 0 0-5.83 0 6.71 6.71 0 0 0-6 6.88v2.78a8.62 8.62 0 0 1-8.45 8.89c-2.51 0-4 1.64-4.07 4.18l-.24 5.7a35 35 0 0 1-9.24 22.59c-1.61 1.8-3.25 3.58-4.89 5.35s-3.27 3.63-5.08 5.28A19.21 19.21 0 0 1 39 76a31.54 31.54 0 0 1-7.92 1.47c-7.65.44-15.3.79-23 1.2a9 9 0 0 0-1.79.24 6.08 6.08 0 0 0-4.44 4.21c-.27.8-.11 1 .72 1h1.39z"/><path class="cls-3" d="M146.5 70.94a7.94 7.94 0 0 0-3.7 2.15 9.29 9.29 0 0 0 8-2.43 8 8 0 0 0-4.3.28z"/><circle class="cls-4" cx="121.18" cy="73.82" r=".5"/><circle class="cls-4" cx="124.88" cy="73.82" r=".5"/><circle class="cls-4" cx="128.58" cy="73.82" r=".5"/><circle class="cls-4" cx="132.28" cy="73.82" r=".5"/><circle class="cls-4" cx="110.07" cy="73.82" r=".5"/><circle class="cls-4" cx="113.77" cy="73.82" r=".5"/><circle class="cls-4" cx="117.47" cy="73.82" r=".5"/><circle class="cls-4" cx="108.24" cy="81.05" r=".5"/><circle class="cls-4" cx="111.94" cy="81.05" r=".5"/><circle class="cls-4" cx="137.84" cy="81.05" r=".5"/><path class="cls-5" d="M93 63.71a25.55 25.55 0 0 1 1.56-10.43 24.34 24.34 0 0 1 1.86-3.92c-.81-.36-1.63-.73-2.48-1.14a58.17 58.17 0 0 0-20.54-5.38c-14.88-.49-13.14 6.75-13.14 6.75 1 11.28 21.39 16.45 33.57 18.54a18.51 18.51 0 0 1-.83-4.42zM163.34 42.84a58.22 58.22 0 0 0-20.54 5.38c-.57.28-1.13.53-1.68.79a21.49 21.49 0 0 1 1.68 19l-.06.13c12.16-2.07 32.71-7.23 33.75-18.57 0 .02 1.74-7.22-13.15-6.73z"/><path d="M87 91.8c5.47-3.53 11.9-9.57 9.46-16.69-1.33-3.88-3.18-7.2-3.42-11.4a25.55 25.55 0 0 1 1.56-10.43c4.9-13.17 19.49-19.41 32.67-15.45C139.46 41.5 147.86 55.67 142.8 68c-2.92 7.13-4.23 12.63 2.28 18.18 1.77 1.5 6 3.76 6 6.42 0 3.5-6.87-.74-7.63-1.35.87 1.53 9.51 10.53 4 11.17-5.06.59-9.53-6.48-12.57-9.51-5.11-5.1-4.22 6.18-4.24 8.51 0 3.67-2.64 11.13-7.3 6.27-3.85-4-2.4-10.39-5.07-14.84-2.94-4.88-7.81 4.87-9 6.65-1.36 2-8.18 11.65-10.89 6.51-2.2-4.18 1.32-10.72 3-14.49-.63 1.37-5.1 3.39-6.41 4a17.35 17.35 0 0 1-9.26 2.14c-6.87-.49-1.6-4.14 1.2-5.94.99-.53-.82.64.09.08z" stroke-width=".63" stroke-linecap="round" stroke-linejoin="round" stroke="#2f93e0" fill="#2f93e0"/><path class="cls-3" d="M96.28 75.72L133 86.9l8.37-12.9.72-2.55s-11.72 4.82-23.31 5.28c-11.24.45-21.47-2-23.47-3.81"/><g clip-path="url(#clip-path)"><circle class="cls-8" cx="118.11" cy="79.05" r=".5"/><circle class="cls-8" cx="115.68" cy="76.99" r=".5"/><circle class="cls-8" cx="112.02" cy="77.06" r=".5"/><circle class="cls-8" cx="119.54" cy="76.85" r=".5"/><circle class="cls-8" cx="121.81" cy="78.88" r=".5"/><circle class="cls-8" cx="125.5" cy="78.72" r=".5"/><circle class="cls-8" cx="129.2" cy="78.55" r=".5"/><circle class="cls-8" cx="107.02" cy="79.54" r=".5"/><circle class="cls-8" cx="110.72" cy="79.38" r=".5"/><circle class="cls-8" cx="107.42" cy="79.1" r=".5"/><circle class="cls-8" cx="114.41" cy="79.21" r=".5"/><circle class="cls-8" cx="132.9" cy="78.39" r=".5"/><circle class="cls-8" cx="136.6" cy="78.22" r=".5"/><circle class="cls-8" cx="123.54" cy="76.23" r=".5"/><circle class="cls-8" cx="127.22" cy="76.07" r=".5"/><circle class="cls-8" cx="130.99" cy="75.9" r=".5"/><circle class="cls-8" cx="108.75" cy="76.89" r=".5"/><circle class="cls-8" cx="103.61" cy="77.12" r=".5"/><circle class="cls-8" cx="99.22" cy="75.51" r=".5"/><circle class="cls-8" cx="134.64" cy="75.74" r=".5"/><circle class="cls-8" cx="138.33" cy="75.57" r=".5"/><circle class="cls-8" cx="136.32" cy="73.18" r=".5"/><circle class="cls-8" cx="140.02" cy="73.01" r=".5"/><circle class="cls-8" cx="118.31" cy="83.58" r=".5"/><circle class="cls-8" cx="122.01" cy="83.41" r=".5"/><circle class="cls-8" cx="125.71" cy="83.25" r=".5"/><circle class="cls-8" cx="129.4" cy="83.08" r=".5"/><circle class="cls-8" cx="107.22" cy="84.07" r=".5"/><circle class="cls-8" cx="110.92" cy="83.91" r=".5"/><circle class="cls-8" cx="114.61" cy="83.74" r=".5"/><circle class="cls-8" cx="133.1" cy="82.92" r=".5"/><circle class="cls-8" cx="136.8" cy="82.75" r=".5"/><circle class="cls-8" cx="120.02" cy="81.14" r=".5"/><circle class="cls-8" cx="123.72" cy="80.98" r=".5"/><circle class="cls-8" cx="127.43" cy="80.81" r=".5"/><circle class="cls-8" cx="131.2" cy="80.65" r=".5"/><circle class="cls-8" cx="131.41" cy="85.27" r=".5"/><circle class="cls-8" cx="128.01" cy="85.32" r=".5"/><circle class="cls-8" cx="116.33" cy="81.31" r=".5"/><circle class="cls-8" cx="134.81" cy="80.48" r=".5"/></g><circle class="cls-3" cx="142.39" cy="72.91" r="1.75"/><path class="cls-3" d="M146.52 72.5a3.77 3.77 0 0 0-2.79.53 3.76 3.76 0 0 0 2.47 1.41 3.69 3.69 0 0 0 2.78-.53 3.73 3.73 0 0 0-2.46-1.41z"/><path class="cls-8" d="M96.84 40.61s.82-16.86 1.68-21.53c0 0 2.57-12.42 8.91-13.22 0 0 1.4-.63 3.73 1.25 0 0 4 3.29 8 3.91 0 0 6.25.78 8.74-1.17 0 0 2.33-2.74 4.42-.16 0 0 8 10.18 8.24 32.56l.13 4.45s-36.08 2.8-36.84 2.58c-8.19-2.37-7.65-.22-7.01-8.67z"/><path class="cls-3" d="M118.41 54.44zM152.65 44.58l.12.09v-.12z"/><path class="cls-8" d="M107.89 45.52s-10.69-.05-33.42-2.64c3 .8 16.06 3.64 19.48 5.29 10.34 5 18.34 6.18 24.43 6.27 6.09-.09 14.08-1.3 24.42-6.27 3.43-1.65 17.55-5.22 19.85-5.41a171.12 171.12 0 0 1-40.47 2z"/><path class="cls-3" d="M140.64 45.05a84.82 84.82 0 0 1-44.13 0l.2-3.24s28.23 3.88 43.83-.17z"/><path class="cls-9" d="M118.92 69.79a1.91 1.91 0 0 0-.22-.73c-2.58-4.92-9.37 3.21-9.37-.7 0-.18-.08 0-.17.37-.9 4.14 3.55 4.84 6.74 3.87a16.18 16.18 0 0 1 3-.53c1.1 0 .04-2.52.02-2.28z"/><path class="cls-9" d="M118.92 69.79a1.91 1.91 0 0 1 .22-.73c2.57-4.92 9.37 3.21 9.37-.7 0-.18.08 0 .16.37.91 4.14-3.54 4.84-6.73 3.87a16.18 16.18 0 0 0-3-.53c-1.13 0-.04-2.52-.02-2.28z"/><circle class="cls-10" cx="122.49" cy="63.89" r="1.65"/><path class="cls-10" d="M119.54 62.82a6 6 0 0 0 2 .34c2 0 3.59-.88 3.59-2a1.28 1.28 0 0 0-.28-.77 9.18 9.18 0 0 1-5.31 2.43z"/><circle class="cls-10" cx="115.34" cy="63.89" r="1.65"/><path class="cls-10" d="M118.29 62.82a5.93 5.93 0 0 1-2 .34c-2 0-3.59-.88-3.59-2a1.29 1.29 0 0 1 .29-.77 9.14 9.14 0 0 0 5.3 2.43z"/><path d="M294.81 4.63H150a5.52 5.52 0 0 0-5.52 5.52v23.44a4.14 4.14 0 0 0 4.14 4.14H152v12.45l12.45-12.45h130.36a4.14 4.14 0 0 0 4.19-4.14V8.77a4.14 4.14 0 0 0-4.19-4.14z" stroke-width=".69" stroke-linecap="round" stroke-linejoin="round" stroke="#0f2535" fill="#fff"/><path class="cls-12" d="M162.43 24.12a2.64 2.64 0 0 1-1 2.23 4.46 4.46 0 0 1-2.82.8 7.07 7.07 0 0 1-3-.49v-1.22a7.69 7.69 0 0 0 1.45.45 8.26 8.26 0 0 0 1.56.16 3.1 3.1 0 0 0 1.89-.48 1.56 1.56 0 0 0 .64-1.33 1.72 1.72 0 0 0-.23-.92 2.06 2.06 0 0 0-.75-.66 9.19 9.19 0 0 0-1.61-.69 5.15 5.15 0 0 1-2.16-1.28 2.86 2.86 0 0 1-.65-1.94 2.39 2.39 0 0 1 .94-2 3.89 3.89 0 0 1 2.49-.74 7.39 7.39 0 0 1 3 .59l-.39 1.1a6.69 6.69 0 0 0-2.61-.57 2.54 2.54 0 0 0-1.56.43 1.43 1.43 0 0 0-.57 1.2 1.82 1.82 0 0 0 .21.92 2 2 0 0 0 .7.66 8.56 8.56 0 0 0 1.51.66 6.05 6.05 0 0 1 2.34 1.3 2.57 2.57 0 0 1 .62 1.82zM171.47 22.94a4.48 4.48 0 0 1-1 3.1 3.51 3.51 0 0 1-2.76 1.11 3.64 3.64 0 0 1-1.93-.51 3.36 3.36 0 0 1-1.31-1.47 5.16 5.16 0 0 1-.46-2.23 4.45 4.45 0 0 1 1-3.1 3.53 3.53 0 0 1 2.75-1.1 3.42 3.42 0 0 1 2.71 1.13 4.47 4.47 0 0 1 1 3.07zm-6.18 0a3.91 3.91 0 0 0 .62 2.37 2.47 2.47 0 0 0 3.66 0 3.8 3.8 0 0 0 .63-2.37 3.77 3.77 0 0 0-.63-2.36 2.52 2.52 0 0 0-3.67 0 3.83 3.83 0 0 0-.61 2.36zM184 27v-5.28a2.16 2.16 0 0 0-.42-1.45 1.57 1.57 0 0 0-1.29-.49 2.07 2.07 0 0 0-1.69.66 3.11 3.11 0 0 0-.55 2V27h-1.25v-5.28a2.16 2.16 0 0 0-.42-1.45 1.57 1.57 0 0 0-1.29-.49 2 2 0 0 0-1.69.69 3.75 3.75 0 0 0-.54 2.27V27h-1.23v-8.12h1l.2 1.12h.06a2.38 2.38 0 0 1 1-.93 3 3 0 0 1 1.42-.33 2.42 2.42 0 0 1 2.49 1.37h.06a2.54 2.54 0 0 1 1-1 3.22 3.22 0 0 1 1.57-.37 2.73 2.73 0 0 1 2.06.7 3.18 3.18 0 0 1 .69 2.27V27zM191.17 27.15a3.74 3.74 0 0 1-2.84-1.09 4.27 4.27 0 0 1-1-3 4.68 4.68 0 0 1 1-3.12 3.2 3.2 0 0 1 2.59-1.15 3.06 3.06 0 0 1 2.42 1 3.86 3.86 0 0 1 .89 2.65v.78h-5.6a3.25 3.25 0 0 0 .73 2.17 2.5 2.5 0 0 0 1.93.74 6.45 6.45 0 0 0 2.59-.55v1.1a7 7 0 0 1-1.23.4 7.13 7.13 0 0 1-1.48.07zm-.33-7.38a2 2 0 0 0-1.56.63 3 3 0 0 0-.69 1.77h4.25a2.66 2.66 0 0 0-.52-1.78 1.81 1.81 0 0 0-1.48-.62zM198.88 26.14a4.46 4.46 0 0 0 .63-.05A4.84 4.84 0 0 0 200 26v.94a2.42 2.42 0 0 1-.59.16 4.62 4.62 0 0 1-.7.06c-1.57 0-2.36-.82-2.36-2.48v-4.84h-1.16v-.59l1.16-.51.52-1.74h.71v1.88h2.36v1h-2.36v4.78a1.68 1.68 0 0 0 .35 1.13 1.21 1.21 0 0 0 .95.35zM207.17 27v-5.25a2.08 2.08 0 0 0-.46-1.48 1.82 1.82 0 0 0-1.41-.49 2.3 2.3 0 0 0-1.87.7 3.52 3.52 0 0 0-.59 2.28V27h-1.23V15.48h1.23V19a7.47 7.47 0 0 1-.06 1h.08a2.43 2.43 0 0 1 1-.92 3.31 3.31 0 0 1 1.53-.34 3.13 3.13 0 0 1 2.23.71 3 3 0 0 1 .75 2.25V27zM210.82 16.68a.79.79 0 0 1 .21-.61.73.73 0 0 1 .51-.2.77.77 0 0 1 .52.2.81.81 0 0 1 .21.61.82.82 0 0 1-.21.62.73.73 0 0 1-.52.21.69.69 0 0 1-.51-.21.82.82 0 0 1-.21-.62zM212.15 27h-1.23v-8.12h1.23zM220.32 27v-5.25a2.08 2.08 0 0 0-.46-1.48 1.82 1.82 0 0 0-1.41-.49 2.34 2.34 0 0 0-1.87.69 3.51 3.51 0 0 0-.59 2.27V27h-1.23v-8.12h1L216 20a2.47 2.47 0 0 1 1.06-.93 3.43 3.43 0 0 1 1.52-.33 3.06 3.06 0 0 1 2.2.7 3 3 0 0 1 .75 2.27V27zM230.72 18.88v.78l-1.51.18a2.28 2.28 0 0 1 .37.68 2.54 2.54 0 0 1 .17.94 2.4 2.4 0 0 1-.82 1.91 3.3 3.3 0 0 1-2.23.71 3.77 3.77 0 0 1-.7-.08 1.21 1.21 0 0 0-.78 1 .54.54 0 0 0 .27.5 2.08 2.08 0 0 0 .94.16h1.44a3.25 3.25 0 0 1 2 .55 1.93 1.93 0 0 1 .7 1.62 2.3 2.3 0 0 1-1.08 2.05 5.78 5.78 0 0 1-3.15.71 4.36 4.36 0 0 1-2.46-.59 2 2 0 0 1-.39-3 2.43 2.43 0 0 1 1.34-.73 1.32 1.32 0 0 1-.53-.44 1.17 1.17 0 0 1-.21-.69 1.31 1.31 0 0 1 .24-.78 2.6 2.6 0 0 1 .75-.64 2.24 2.24 0 0 1-1-.88 2.65 2.65 0 0 1-.4-1.43 2.61 2.61 0 0 1 .81-2.05 3.25 3.25 0 0 1 2.26-.72 4.47 4.47 0 0 1 1.15.14zm-6.48 9.49a1.11 1.11 0 0 0 .56 1 3.13 3.13 0 0 0 1.59.34 4.52 4.52 0 0 0 2.29-.46 1.42 1.42 0 0 0 .75-1.26 1 1 0 0 0-.41-.92 3.17 3.17 0 0 0-1.53-.25H226a1.93 1.93 0 0 0-1.3.4 1.44 1.44 0 0 0-.46 1.15zm.67-6.88a1.64 1.64 0 0 0 .48 1.28 1.88 1.88 0 0 0 1.34.44 1.57 1.57 0 0 0 1.8-1.75 1.61 1.61 0 0 0-1.82-1.83 1.8 1.8 0 0 0-1.33.47 1.88 1.88 0 0 0-.47 1.39zM233.37 16.17l.11.17c-.13.49-.31 1.06-.55 1.72s-.5 1.26-.76 1.82h-.9c.34-1.4.59-2.64.75-3.71zM240.2 24.79a2 2 0 0 1-.84 1.75 4 4 0 0 1-2.37.61 5.15 5.15 0 0 1-2.52-.51V25.5a6.44 6.44 0 0 0 1.25.47 5.46 5.46 0 0 0 1.3.17 2.89 2.89 0 0 0 1.48-.31 1.05 1.05 0 0 0 .1-1.75 6.25 6.25 0 0 0-1.6-.79 9.5 9.5 0 0 1-1.61-.74 2.11 2.11 0 0 1-.71-.72 1.79 1.79 0 0 1-.24-.95 1.82 1.82 0 0 1 .81-1.57 3.8 3.8 0 0 1 2.22-.57 6.38 6.38 0 0 1 2.56.53l-.44 1a5.76 5.76 0 0 0-2.21-.5 2.58 2.58 0 0 0-1.32.27.84.84 0 0 0-.44.76.92.92 0 0 0 .16.55 1.68 1.68 0 0 0 .54.44 11.66 11.66 0 0 0 1.42.6 5.27 5.27 0 0 1 1.95 1.06 1.85 1.85 0 0 1 .51 1.34zM252.77 27l-1.49-4.76c-.09-.29-.27-.95-.52-2h-.06c-.2.86-.37 1.53-.52 2L248.65 27h-1.43L245 18.88h1.29l1.19 4.66a17.85 17.85 0 0 1 .52 2.16c.06-.28.15-.65.27-1.09s.22-.8.31-1.07l1.49-4.66h1.33l1.46 4.66a16.9 16.9 0 0 1 .56 2.15h.06a7 7 0 0 1 .16-.83c.08-.37.6-2.36 1.54-6h1.28L254.23 27zM261.65 18.74a4.78 4.78 0 0 1 1 .09l-.2 1.17a3.84 3.84 0 0 0-.89-.11 2.15 2.15 0 0 0-1.69.8 2.93 2.93 0 0 0-.7 2V27h-1.23v-8.12h1l.14 1.51h.06a3.43 3.43 0 0 1 1.09-1.22 2.41 2.41 0 0 1 1.42-.43zM271.15 22.94a4.53 4.53 0 0 1-1 3.1 3.54 3.54 0 0 1-2.77 1.11 3.66 3.66 0 0 1-1.93-.51 3.36 3.36 0 0 1-1.31-1.47 5.16 5.16 0 0 1-.46-2.23 4.49 4.49 0 0 1 1-3.1 3.53 3.53 0 0 1 2.75-1.1 3.42 3.42 0 0 1 2.71 1.13 4.47 4.47 0 0 1 1.01 3.07zm-6.19 0a3.91 3.91 0 0 0 .62 2.37 2.48 2.48 0 0 0 3.67 0 3.87 3.87 0 0 0 .62-2.37 3.84 3.84 0 0 0-.62-2.36 2.23 2.23 0 0 0-1.85-.8 2.19 2.19 0 0 0-1.83.79 3.83 3.83 0 0 0-.57 2.37zM278.86 27v-5.25a2.13 2.13 0 0 0-.45-1.48 1.85 1.85 0 0 0-1.42-.49 2.34 2.34 0 0 0-1.87.69 3.51 3.51 0 0 0-.59 2.27V27h-1.23v-8.12h1l.2 1.12h.06a2.53 2.53 0 0 1 1.06-.93 3.43 3.43 0 0 1 1.52-.33 3.1 3.1 0 0 1 2.21.7 3.05 3.05 0 0 1 .74 2.27V27zM289.26 18.88v.78l-1.51.18a2.28 2.28 0 0 1 .37.68 2.54 2.54 0 0 1 .17.94 2.4 2.4 0 0 1-.82 1.91 3.3 3.3 0 0 1-2.23.71 3.77 3.77 0 0 1-.69-.06 1.21 1.21 0 0 0-.78 1 .54.54 0 0 0 .27.5 2.11 2.11 0 0 0 .94.16h1.44a3.23 3.23 0 0 1 2 .55 1.94 1.94 0 0 1 .71 1.62 2.31 2.31 0 0 1-1.09 2.05 5.78 5.78 0 0 1-3.15.71 4.38 4.38 0 0 1-2.46-.59 1.94 1.94 0 0 1-.86-1.68 1.91 1.91 0 0 1 .47-1.28 2.43 2.43 0 0 1 1.34-.73 1.32 1.32 0 0 1-.53-.44 1.17 1.17 0 0 1-.21-.69 1.31 1.31 0 0 1 .24-.78 2.6 2.6 0 0 1 .75-.64 2.24 2.24 0 0 1-1-.88 2.64 2.64 0 0 1-.39-1.43 2.6 2.6 0 0 1 .8-2.05 3.26 3.26 0 0 1 2.26-.72 4.47 4.47 0 0 1 1.15.14zm-6.48 9.49a1.11 1.11 0 0 0 .56 1 3.13 3.13 0 0 0 1.59.34 4.58 4.58 0 0 0 2.3-.46A1.43 1.43 0 0 0 288 28a1 1 0 0 0-.41-.92 3.17 3.17 0 0 0-1.53-.25h-1.48a1.93 1.93 0 0 0-1.3.4 1.44 1.44 0 0 0-.5 1.14zm.67-6.88a1.64 1.64 0 0 0 .48 1.28 1.88 1.88 0 0 0 1.34.44 1.57 1.57 0 0 0 1.8-1.75 1.61 1.61 0 0 0-1.82-1.83 1.8 1.8 0 0 0-1.33.47 1.88 1.88 0 0 0-.47 1.39z"/><path class="cls-2" d="M38.59 79.77V65.93a3.83 3.83 0 0 0 .74-.13l11-3.34A3.68 3.68 0 0 0 53 59v-8.71a3.67 3.67 0 1 0-7.34 0v5.93l-7 2.13V33.28a3.67 3.67 0 0 0-7.34 0v19.28l-5.13-1.68V45a3.67 3.67 0 0 0-7.34 0v8.55A3.66 3.66 0 0 0 21.31 57L31 60.21a1.41 1.41 0 0 0 .22.06v19.5"/><path class="cls-2" d="M10.3 78.89a3.23 3.23 0 0 0 .44 0c.27 0 .68.16.78-.18s-.33-.35-.53-.48a14.27 14.27 0 0 1-2.5-2 4.27 4.27 0 0 1-.78-1.06 1.44 1.44 0 0 1 .1-1.67 1.47 1.47 0 0 1 1.51-.5c.35.06.72.42 1 .19s.05-.63.06-1a1.42 1.42 0 0 1 .71-1.4 1.5 1.5 0 0 1 1.66.21c.54.4.55.38.94-.22a1.35 1.35 0 0 1 2.48 0c.26.39.39.67.87.23a1.33 1.33 0 0 1 1.65-.17 1.55 1.55 0 0 1 .68 1.53 4.86 4.86 0 0 1-.07.55c0 .29.07.41.38.31a5 5 0 0 1 1.07-.23 1.34 1.34 0 0 1 1.42 1.81 3.6 3.6 0 0 1-1 1.46 15.37 15.37 0 0 1-2.79 2.17c-.12.08-.29.15-.19.33s.18.1.27.1H54.83a.61.61 0 0 1 .6.67.63.63 0 0 1-.6.67H26"/></svg>